<svg id="Layer_2" data-name="Layer 2" xmlns="http://www.w3.org/2000/svg" viewBox="0 0 2308.04 829"><defs><style>.cls-1{fill:red;}.cls-2{fill:none;stroke:#000;stroke-miterlimit:10;stroke-width:2px;}.cls-3{fill:#fff;stroke:#fff;stroke-width:30px;}</style></defs><title>Logo</title><path class="cls-1" d="M-2360.16-941.36l147.3,223.1v-83.8l373.8-1.1s63.4,2.3,68,64.6-65.7,68-65.7,68h-523.4v557.2h148.4l-1.1-417.8h165.4L-1795-112.36h172.2l-252.5-418.8s236.8,21.3,251.5-213.1c0-21.5-13.6-165.4-191.4-197.1Z" transform="translate(2360.16 941.36)"/><path class="cls-2" d="M-1795-112.36" transform="translate(2360.16 941.36)"/><path class="cls-2" d="M-1622.86-112.36" transform="translate(2360.16 941.36)"/><path class="cls-3" d="M-1566.77-495.53h48.68v347.19h-48.68Zm21.24,154.19h118.36a45.53,45.53,0,0,0,24.58-6.68A44,44,0,0,0-1386-367q5.85-12.28,5.85-28.27t-5.85-28.28a44.35,44.35,0,0,0-16.46-19q-10.62-6.68-24.7-6.68h-118.36v-46.3h116.45q30.06,0,52.85,12.41a87.13,87.13,0,0,1,35.32,35.2q12.53,22.8,12.53,52.62T-1341-342.71a87.7,87.7,0,0,1-35.43,35.2q-22.8,12.42-52.62,12.41h-116.45Zm94.49,35.55,48.45-11,88.77,168.45h-57.75Z" transform="translate(2360.16 941.36)"/><path class="cls-3" d="M-1141.42-289.34v141h-48.68v-141l-105.71-206h54.17l75.88,156.54,75.88-156.54h54.18Z" transform="translate(2360.16 941.36)"/><path class="cls-3" d="M-975.12-495.29h244.83V-449H-975.12Zm98.08,28.4h48.68v318.55H-877Z" transform="translate(2360.16 941.36)"/><path class="cls-3" d="M-669.7-495.29H-621v347H-669.7Zm30.3,153h192.6V-296H-639.37Zm166.8-153h48.68v347H-472.6Z" transform="translate(2360.16 941.36)"/><path class="cls-3" d="M-112.7-495.29h45.58v347h-47.49V-408.19l2.39,15.27L-197.7-196.53h-33.88L-317-388.14l2.38-20.05v259.85h-47.48v-347h45.57l101.9,229.09Z" transform="translate(2360.16 941.36)"/></svg>